<?xml version="1.0" encoding="UTF-8" standalone="no"?>
<!DOCTYPE svg PUBLIC "-//W3C//DTD SVG 1.1//EN" "http://www.w3.org/Graphics/SVG/1.1/DTD/svg11.dtd">
<svg xmlns="http://www.w3.org/2000/svg" version="1.1" viewBox="0.00 0.00 640.00 832.00">
<g stroke-width="2.00" fill="none" stroke-linecap="butt">
<path stroke="#4d4d4d" vector-effect="non-scaling-stroke" d="
  M 368.06 243.91
  L 341.31 244.07"
/>
<path stroke="#3a3a3a" vector-effect="non-scaling-stroke" d="
  M 368.18 247.67
  Q 361.58 256.44 356.34 266.07"
/>
<path stroke="#3a3a3a" vector-effect="non-scaling-stroke" d="
  M 351.72 264.30
  Q 347.27 255.07 340.67 247.19"
/>
<path stroke="#a4a4a4" vector-effect="non-scaling-stroke" d="
  M 331.09 289.48
  Q 331.04 289.92 330.16 289.79"
/>
<path stroke="#6b6b6b" vector-effect="non-scaling-stroke" d="
  M 330.16 289.79
  Q 298.87 286.29 273.38 302.88
  Q 252.04 316.75 235.38 339.04"
/>
<path stroke="#787878" vector-effect="non-scaling-stroke" d="
  M 235.38 339.04
  Q 221.24 358.02 211.39 380.79"
/>
<path stroke="#919191" vector-effect="non-scaling-stroke" d="
  M 211.39 380.79
  Q 206.03 392.38 202.89 405.84"
/>
<path stroke="#a4a4a4" vector-effect="non-scaling-stroke" d="
  M 202.89 405.84
  Q 200.27 415.56 199.01 425.58
  Q 198.22 431.90 198.22 442.97
  Q 198.21 451.70 198.07 460.44
  Q 198.07 460.63 198.25 460.63
  Q 198.39 460.63 198.54 460.64
  Q 198.81 460.67 198.81 460.40
  C 198.91 455.36 198.52 449.87 200.12 445.24
  C 202.30 438.92 206.94 433.34 209.94 428.53"
/>
<path stroke="#919191" vector-effect="non-scaling-stroke" d="
  M 209.94 428.53
  L 212.64 425.81"
/>
<path stroke="#d8d8d8" vector-effect="non-scaling-stroke" d="
  M 212.64 425.81
  L 219.10 420.41
  A 1.16 1.14 28.6 0 1 220.00 420.15
  Q 221.17 420.29 222.10 419.62
  Q 222.46 419.36 222.90 419.44
  Q 229.19 420.53 233.02 420.41
  Q 238.61 420.23 242.79 421.62"
/>
<path stroke="#6b6b6b" vector-effect="non-scaling-stroke" d="
  M 242.79 421.62
  C 232.26 437.95 229.40 457.87 231.63 476.90
  C 235.62 511.02 259.80 542.75 286.18 563.41"
/>
<path stroke="#d8d8d8" vector-effect="non-scaling-stroke" d="
  M 286.18 563.41
  Q 287.36 566.57 291.97 568.82
  Q 292.50 569.07 291.95 569.27
  L 291.61 569.39
  Q 291.20 569.53 290.87 569.25
  Q 289.94 568.43 288.94 568.81
  Q 288.39 569.02 287.85 568.79
  Q 282.55 566.58 280.67 564.56
  Q 274.78 558.23 267.10 554.63
  Q 263.28 552.83 260.90 551.11
  Q 251.64 544.42 241.85 538.50
  Q 241.39 538.22 241.08 538.66
  L 240.83 539.00
  A 0.35 0.34 51.5 0 1 240.24 538.93
  L 239.72 537.77
  Q 239.45 537.18 238.92 537.54
  Q 238.29 537.96 237.83 537.24
  Q 237.49 536.72 237.01 537.10
  Q 235.56 538.22 233.71 537.86
  Q 233.19 537.76 232.85 537.36
  Q 231.57 535.84 229.70 535.85
  Q 229.37 535.86 229.16 535.60
  Q 228.43 534.69 227.05 535.05
  Q 226.59 535.18 226.19 534.91
  Q 225.06 534.16 224.81 532.86
  Q 224.70 532.33 224.26 532.01
  Q 223.09 531.15 222.84 529.72
  Q 222.75 529.22 222.37 528.88
  C 221.92 528.49 221.67 528.38 221.40 527.80
  Q 219.18 523.05 215.36 519.44"
/>
<path stroke="#6b6b6b" vector-effect="non-scaling-stroke" d="
  M 215.36 519.44
  Q 199.17 491.10 196.82 457.72"
/>
<path stroke="#787878" vector-effect="non-scaling-stroke" d="
  M 196.82 457.72
  Q 194.79 430.28 202.33 403.25
  Q 208.10 382.58 218.60 363.73"
/>
<path stroke="#848484" vector-effect="non-scaling-stroke" d="
  M 218.60 363.73
  Q 230.72 340.95 248.62 322.14"
/>
<path stroke="#a4a4a4" vector-effect="non-scaling-stroke" d="
  M 248.62 322.14
  Q 254.38 316.17 260.35 310.30
  Q 262.57 308.13 265.92 306.16
  Q 270.08 303.72 273.89 300.71"
/>
<path stroke="#4d4d4d" vector-effect="non-scaling-stroke" d="
  M 330.16 289.79
  L 343.77 293.33"
/>
<path stroke="#3a3a3a" vector-effect="non-scaling-stroke" d="
  M 343.77 293.33
  C 365.78 301.92 383.32 318.25 397.18 337.56
  Q 410.47 356.08 423.28 374.96"
/>
<path stroke="#4d4d4d" vector-effect="non-scaling-stroke" d="
  M 423.28 374.96
  Q 439.04 399.34 455.39 418.46
  Q 469.34 434.79 487.95 448.79
  C 491.46 451.43 495.69 453.84 499.96 456.54
  Q 520.16 469.29 544.79 473.93"
/>
<path stroke="#2d2d2d" vector-effect="non-scaling-stroke" d="
  M 544.79 473.93
  Q 545.89 480.43 546.17 487.48
  C 546.24 489.37 547.03 491.66 546.18 494.12
  Q 546.02 494.60 546.08 495.09
  Q 546.36 497.24 545.71 499.21
  Q 545.15 500.94 543.15 502.27
  Q 538.70 505.25 534.00 507.82"
/>
<path stroke="#3a3a3a" vector-effect="non-scaling-stroke" d="
  M 534.00 507.82
  L 509.45 520.39"
/>
<path stroke="#212121" vector-effect="non-scaling-stroke" d="
  M 509.45 520.39
  Q 508.47 519.73 507.96 520.21
  Q 507.63 520.51 507.63 520.07
  L 507.63 519.54
  Q 507.63 519.26 507.91 519.25
  Q 509.46 519.24 509.88 517.90
  A 0.44 0.43 10.5 0 0 509.48 517.33
  C 506.31 517.21 498.37 516.36 497.57 513.24
  Q 497.44 512.75 496.95 512.75
  C 493.76 512.69 492.10 514.36 489.83 515.39
  C 464.20 527.03 434.61 532.07 407.00 524.50
  Q 382.80 517.87 359.14 504.10
  Q 336.22 490.77 318.56 468.72
  Q 312.15 460.72 308.02 451.43
  Q 306.76 448.62 304.38 440.81
  Q 302.78 435.58 300.69 430.19"
/>
<path stroke="#818181" vector-effect="non-scaling-stroke" d="
  M 300.69 430.19
  Q 301.69 422.19 306.41 414.12
  Q 306.82 413.42 306.86 414.23
  C 307.47 427.84 316.41 442.04 325.79 451.95
  C 347.81 475.23 380.28 489.54 412.72 486.23"
/>
<path stroke="#6b6b6b" vector-effect="non-scaling-stroke" d="
  M 412.72 486.23
  Q 440.97 483.37 465.76 470.57"
/>
<path stroke="#636362" vector-effect="non-scaling-stroke" d="
  M 465.76 470.57
  Q 476.77 466.12 487.35 458.59"
/>
<path stroke="#4d4d4d" vector-effect="non-scaling-stroke" d="
  M 487.35 458.59
  Q 489.45 457.85 491.14 456.04
  A 1.06 1.05 42.2 0 0 491.06 454.53
  L 470.17 436.24"
/>
<path stroke="#3a3a3a" vector-effect="non-scaling-stroke" d="
  M 470.17 436.24
  L 447.31 412.47"
/>
<path stroke="#212121" vector-effect="non-scaling-stroke" d="
  M 447.31 412.47
  Q 446.50 410.83 445.70 409.25
  Q 444.89 407.66 443.77 406.20
  Q 434.86 394.61 426.51 382.63
  C 425.11 380.62 423.03 378.62 421.40 376.58
  Q 420.07 374.90 418.23 373.99
  Q 414.84 372.31 411.58 370.38
  Q 406.92 367.63 405.01 366.66
  Q 383.64 355.88 360.13 351.11
  Q 359.65 351.01 359.25 350.72
  C 358.52 350.18 357.62 350.39 356.94 350.28
  C 351.43 349.39 346.51 348.75 340.41 347.65
  Q 329.72 345.71 320.51 346.12
  Q 304.31 346.84 293.99 346.63
  C 290.21 346.55 286.75 347.07 283.11 347.56
  Q 283.05 347.57 275.34 348.24
  Q 270.67 348.64 266.75 350.27
  Q 265.23 350.91 264.03 351.17
  Q 261.33 351.78 261.29 351.79
  Q 256.22 353.34 250.92 354.31
  Q 250.39 354.41 250.78 354.04
  L 252.73 352.17
  Q 253.15 351.77 253.72 351.70
  L 257.68 351.22
  Q 258.17 351.16 258.40 350.72
  Q 258.87 349.82 259.77 349.42
  Q 262.97 348.00 266.30 346.85
  Q 266.74 346.69 266.91 346.26
  Q 267.71 344.26 265.76 343.74
  Q 257.90 341.66 248.12 341.66
  A 1.60 1.51 60.0 0 1 247.28 341.41
  Q 246.47 340.89 245.82 341.45
  Q 245.37 341.83 244.89 341.48
  Q 243.73 340.62 242.54 341.20
  A 1.10 1.07 44.3 0 1 241.61 341.20
  Q 238.09 339.48 235.03 341.84
  Q 234.80 342.02 234.54 341.89
  Q 234.38 341.81 234.22 341.73
  A 0.34 0.34 0.0 0 1 234.19 341.14
  Q 235.33 340.40 235.38 339.04"
/>
<path stroke="#3a3a3a" vector-effect="non-scaling-stroke" d="
  M 218.60 363.73
  Q 218.53 363.03 218.35 362.74
  Q 218.16 362.44 217.60 362.79
  Q 216.94 363.21 216.28 363.65
  Q 215.84 363.94 215.56 364.40
  L 210.73 372.38
  Q 210.51 372.73 210.14 372.91
  Q 204.63 375.54 202.11 377.85
  Q 190.85 388.14 178.74 392.97
  Q 169.79 396.54 160.85 400.07
  Q 156.64 401.74 150.55 401.38"
/>
<path stroke="#848484" vector-effect="non-scaling-stroke" d="
  M 150.55 401.38
  Q 168.77 369.42 196.91 345.41
  Q 197.35 345.03 197.02 344.44"
/>
<path stroke="#818181" vector-effect="non-scaling-stroke" d="
  M 215.36 519.44
  C 239.78 563.61 280.68 590.72 328.25 603.06
  Q 340.06 606.12 348.25 606.13
  C 352.61 606.13 356.95 602.98 361.94 602.76"
/>
<path stroke="#4d4d4d" vector-effect="non-scaling-stroke" d="
  M 277.71 608.16
  Q 267.36 607.50 256.99 607.24
  C 254.15 607.17 251.08 606.49 248.09 606.27
  Q 242.51 605.85 241.43 605.71
  C 209.34 601.35 182.32 587.79 160.84 563.27"
/>
<path stroke="#818181" vector-effect="non-scaling-stroke" d="
  M 253.37 409.89
  Q 246.89 414.60 242.79 421.62"
/>
<path stroke="#212121" vector-effect="non-scaling-stroke" d="
  M 196.82 457.72
  Q 195.04 461.56 196.43 467.28
  Q 197.00 469.60 196.63 473.09
  Q 196.63 473.10 196.69 474.09
  Q 196.72 474.50 196.43 474.81
  Q 196.11 475.15 196.40 475.51
  Q 197.32 476.67 196.75 478.23
  Q 196.58 478.66 196.37 478.25
  Q 195.14 475.89 195.09 473.18
  A 0.79 0.78 85.5 0 0 194.20 472.41
  Q 192.88 472.58 192.60 471.32
  A 1.57 1.57 0.0 0 0 191.04 470.08
  Q 187.22 470.14 183.63 471.49
  Q 183.20 471.65 182.83 471.37
  C 181.33 470.21 179.93 470.60 178.59 470.37
  Q 173.29 469.44 167.97 470.52
  Q 167.50 470.62 167.36 471.08
  Q 167.04 472.12 165.75 472.03
  Q 162.63 471.80 159.64 472.84
  Q 159.13 473.01 158.69 472.69
  Q 157.80 472.03 157.14 472.86
  Q 156.80 473.29 156.26 473.29
  C 154.45 473.31 153.55 473.29 151.33 473.01
  Q 149.71 472.81 148.13 473.56
  Q 147.72 473.75 147.42 474.10
  Q 147.08 474.50 146.61 474.60
  Q 146.29 474.67 146.15 474.37
  L 145.85 473.74
  Q 145.69 473.41 145.35 473.53
  Q 140.98 474.96 136.28 474.72
  A 1.58 1.55 69.6 0 1 135.20 474.21
  Q 133.15 471.99 131.12 474.35
  A 0.73 0.72 39.4 0 1 130.12 474.44
  Q 128.95 473.52 128.76 472.00"
/>
<path stroke="#a6a6a6" vector-effect="non-scaling-stroke" d="
  M 468.77 595.90
  Q 469.00 595.88 469.28 596.18"
/>
<path stroke="#666666" vector-effect="non-scaling-stroke" d="
  M 248.62 322.14
  Q 245.61 322.97 243.05 321.57
  A 0.94 0.91 57.9 0 0 242.56 321.45
  Q 239.22 321.54 236.75 323.71
  A 1.72 1.67 18.0 0 1 235.96 324.10
  C 232.75 324.72 230.14 326.94 226.77 325.80
  Q 225.25 325.28 225.70 323.98"
/>
<path stroke="#737373" vector-effect="non-scaling-stroke" d="
  M 344.26 292.95
  Q 344.05 293.22 343.77 293.33"
/>
<path stroke="#464646" vector-effect="non-scaling-stroke" d="
  M 447.31 412.47
  Q 432.60 400.95 420.87 392.63
  Q 400.09 377.88 375.84 367.85"
/>
<path stroke="#3a3a3a" vector-effect="non-scaling-stroke" d="
  M 375.84 367.85
  Q 362.69 362.44 348.93 359.06
  Q 347.38 358.68 345.59 358.08
  Q 343.14 357.25 342.24 357.17
  Q 338.36 356.85 334.54 356.12
  Q 328.62 354.99 326.92 354.75
  Q 324.20 354.38 321.47 354.02
  C 312.44 352.86 302.17 353.59 293.03 353.80
  Q 284.71 354.00 277.54 355.06
  Q 269.29 356.28 262.25 357.86
  Q 242.64 362.28 224.19 371.84"
/>
<path stroke="#464646" vector-effect="non-scaling-stroke" d="
  M 224.19 371.84
  Q 217.37 375.67 211.39 380.79"
/>
<path stroke="#737373" vector-effect="non-scaling-stroke" d="
  M 470.17 436.24
  Q 469.58 435.99 468.80 436.62
  Q 468.40 436.93 467.97 436.67
  Q 459.18 431.43 449.50 428.15
  Q 429.43 421.33 409.25 414.90
  Q 404.65 413.43 395.62 411.80
  Q 390.11 410.81 381.93 409.13
  Q 368.97 406.47 356.99 405.68
  C 350.59 405.25 343.54 405.73 336.39 405.72
  Q 333.67 405.72 331.01 406.63
  Q 330.51 406.80 330.09 406.47
  Q 328.73 405.43 327.52 407.20"
/>
<path stroke="#919191" vector-effect="non-scaling-stroke" d="
  M 327.52 407.20
  C 314.73 400.02 299.60 394.60 284.77 394.42"
/>
<path stroke="#888888" vector-effect="non-scaling-stroke" d="
  M 284.77 394.42
  L 274.83 395.58"
/>
<path stroke="#a6a6a6" vector-effect="non-scaling-stroke" d="
  M 274.83 395.58
  Q 237.60 398.70 212.64 425.81"
/>
<path stroke="#737373" vector-effect="non-scaling-stroke" d="
  M 209.94 428.53
  Q 210.70 426.49 212.63 424.99
  Q 213.08 424.64 212.83 424.12
  Q 212.46 423.36 213.25 423.10
  A 1.41 1.25 31.5 0 0 212.48 420.58
  Q 211.73 420.60 210.83 419.68
  Q 210.30 419.14 209.87 418.17
  Q 207.61 413.10 205.79 407.87
  Q 205.64 407.42 205.19 407.58
  L 204.68 407.77
  A 0.39 0.39 0.0 0 1 204.15 407.41
  L 204.11 405.06
  Q 204.10 404.55 203.68 404.85
  Q 203.24 405.18 202.89 405.84"
/>
<path stroke="#6b6b6b" vector-effect="non-scaling-stroke" d="
  M 248.61 452.93
  C 259.58 490.78 290.64 517.70 326.42 532.26"
/>
<path stroke="#212121" vector-effect="non-scaling-stroke" d="
  M 326.42 532.26
  L 327.27 533.92
  Q 327.50 534.37 327.97 534.53
  Q 332.18 535.95 336.43 537.28
  C 338.10 537.80 339.10 538.79 341.34 538.32
  A 0.33 0.31 -32.8 0 1 341.56 538.36
  Q 341.86 538.53 341.87 538.79
  Q 341.90 539.13 342.22 539.22
  Q 378.20 549.90 415.54 546.61
  C 420.97 546.13 428.83 546.15 434.49 544.78
  Q 435.28 544.58 437.96 543.02
  A 0.31 0.31 0.0 0 0 437.94 542.48
  Q 437.65 542.33 437.29 542.42"
/>
<path stroke="#6b6b6b" vector-effect="non-scaling-stroke" d="
  M 437.29 542.42
  Q 460.98 538.62 483.81 531.29"
/>
<path stroke="#636362" vector-effect="non-scaling-stroke" d="
  M 483.81 531.29
  L 496.73 526.46"
/>
<path stroke="#3a3a3a" vector-effect="non-scaling-stroke" d="
  M 496.73 526.46
  Q 496.86 526.44 497.00 526.42"
/>
<path stroke="#212121" vector-effect="non-scaling-stroke" d="
  M 497.00 526.42
  L 505.44 524.23
  Q 505.60 524.19 505.63 524.02
  Q 505.66 523.88 505.74 523.77
  Q 505.83 523.62 506.08 523.55
  Q 508.89 522.82 511.63 521.86
  Q 512.43 521.59 512.11 522.37
  L 511.97 522.74
  Q 511.82 523.12 511.41 523.12
  L 510.75 523.12
  Q 510.24 523.12 509.80 523.38
  L 504.50 526.51
  A 0.88 0.88 0.0 0 0 504.93 528.14
  Q 506.42 528.17 507.47 528.91
  A 0.90 0.90 0.0 0 0 508.89 528.30
  Q 509.09 526.84 510.61 527.11
  A 0.79 0.79 0.0 0 1 511.08 528.39
  Q 510.47 529.13 511.85 529.64
  Q 514.33 530.55 516.73 531.78
  Q 517.38 532.11 519.14 533.32
  Q 520.56 534.28 521.72 534.55
  Q 523.92 535.05 525.54 535.79
  Q 527.94 536.89 529.18 537.32
  Q 532.70 538.54 536.77 541.36
  Q 538.32 542.43 540.27 541.34
  A 1.20 1.19 37.2 0 1 541.16 541.22
  Q 546.07 542.45 549.19 546.40"
/>
<path stroke="#3a3a3a" vector-effect="non-scaling-stroke" d="
  M 488.54 588.64
  L 468.77 595.90"
/>
<path stroke="#818181" vector-effect="non-scaling-stroke" d="
  M 468.77 595.90
  Q 449.45 601.04 425.25 601.65
  Q 394.70 602.41 367.86 598.42
  C 338.32 594.01 310.09 581.34 286.18 563.41"
/>
<path stroke="#5a5a5a" vector-effect="non-scaling-stroke" d="
  M 592.84 457.49
  Q 589.11 466.01 579.50 471.26"
/>
<path stroke="#666666" vector-effect="non-scaling-stroke" d="
  M 579.50 471.26
  Q 562.54 476.30 544.79 473.93"
/>
<path stroke="#a4a4a4" vector-effect="non-scaling-stroke" d="
  M 327.52 407.20
  Q 340.85 415.10 353.02 424.53"
/>
<path stroke="#babab9" vector-effect="non-scaling-stroke" d="
  M 353.02 424.53
  Q 366.58 435.56 374.24 444.01
  Q 376.63 446.65 378.35 448.26
  Q 381.70 451.40 382.56 452.37
  Q 386.94 457.29 391.69 461.82
  Q 394.97 464.95 399.45 467.54
  Q 405.17 470.85 410.87 474.17
  C 413.51 475.71 416.46 478.62 419.96 479.95
  Q 421.40 480.50 422.34 481.20
  Q 423.53 482.08 424.78 482.93
  Q 425.20 483.21 425.69 483.11
  Q 446.09 478.94 465.76 470.57"
/>
<path stroke="#d8d8d8" vector-effect="non-scaling-stroke" d="
  M 412.72 486.23
  Q 413.69 484.99 411.25 484.96
  Q 408.93 484.93 408.03 482.94
  Q 407.83 482.49 407.38 482.26
  C 404.55 480.84 403.09 478.67 400.79 476.62
  Q 399.58 475.53 398.77 474.13
  C 397.80 472.47 396.74 471.75 395.10 471.13
  Q 394.54 470.92 394.27 470.39
  L 393.15 468.24
  Q 393.09 468.12 392.95 468.12
  L 392.66 468.12
  Q 392.21 468.12 391.93 467.75
  Q 374.77 444.85 352.85 426.59
  C 344.74 419.83 335.73 414.09 326.56 408.67
  Q 321.23 405.53 315.61 403.95"
/>
<path stroke="#919191" vector-effect="non-scaling-stroke" d="
  M 316.45 403.56
  Q 300.96 395.59 284.68 394.84"
/>
<path stroke="#9c9c9b" vector-effect="non-scaling-stroke" d="
  M 487.35 458.59
  Q 485.16 458.81 483.23 459.89
  A 0.16 0.16 0.0 0 1 483.00 459.75
  Q 483.00 459.62 483.01 459.50
  Q 483.03 459.25 482.79 459.20
  Q 478.56 458.27 472.99 455.44
  Q 468.47 453.15 455.55 447.27
  Q 451.63 445.48 445.82 443.36
  Q 441.79 441.88 436.00 439.63
  Q 421.80 434.11 402.39 429.33
  C 400.91 428.97 399.28 428.95 397.68 428.50
  Q 394.66 427.65 394.22 427.57
  C 382.06 425.28 369.96 425.30 357.62 425.11
  Q 357.13 425.11 356.67 425.29
  Q 355.04 425.97 353.02 424.53"
/>
<path stroke="#888888" vector-effect="non-scaling-stroke" d="
  M 496.73 526.46
  L 496.43 526.15"
/>
<path stroke="#535353" vector-effect="non-scaling-stroke" d="
  M 534.56 508.18
  Q 534.46 507.89 534.00 507.82"
/>
<path stroke="#464646" vector-effect="non-scaling-stroke" d="
  M 509.45 520.39
  L 496.43 526.15"
/>
<path stroke="#6f6f6f" vector-effect="non-scaling-stroke" d="
  M 496.43 526.15
  L 483.54 530.87"
/>
<path stroke="#787878" vector-effect="non-scaling-stroke" d="
  M 483.54 530.87
  Q 470.81 534.83 457.75 536.82"
/>
<path stroke="#3a3a3a" vector-effect="non-scaling-stroke" d="
  M 457.75 536.82
  Q 452.00 536.65 448.50 536.83
  Q 448.32 536.84 448.21 537.05
  Q 448.09 537.30 447.81 537.32
  C 442.33 537.66 435.95 536.65 431.72 536.52
  C 426.25 536.36 420.89 536.44 415.45 535.88
  Q 404.74 534.79 394.00 534.12
  Q 384.43 533.52 366.49 528.92
  Q 366.17 528.84 365.21 528.88
  Q 364.82 528.89 364.47 528.74
  L 360.83 527.13
  Q 359.98 526.75 360.18 527.66
  L 360.43 528.82"
/>
<path stroke="#787878" vector-effect="non-scaling-stroke" d="
  M 360.43 528.82
  Q 330.95 513.61 313.09 485.67"
/>
<path stroke="#8d8d8d" vector-effect="non-scaling-stroke" d="
  M 300.69 430.19
  Q 297.16 444.00 300.62 457.10"
/>
<path stroke="#737373" vector-effect="non-scaling-stroke" d="
  M 423.38 374.50
  Q 423.17 374.69 423.28 374.96"
/>
<path stroke="#787878" vector-effect="non-scaling-stroke" d="
  M 150.55 401.38
  Q 131.83 434.48 128.76 472.00"
/>
<path stroke="#6b6b6b" vector-effect="non-scaling-stroke" d="
  M 128.76 472.00
  Q 126.92 524.31 160.84 563.27"
/>
<path stroke="#a4a4a4" vector-effect="non-scaling-stroke" d="
  M 160.84 563.27
  Q 160.68 563.50 160.54 563.51"
/>
<path stroke="#babab9" vector-effect="non-scaling-stroke" d="
  M 284.77 394.42
  Q 284.73 394.63 284.68 394.84"
/>
<path stroke="#888888" vector-effect="non-scaling-stroke" d="
  M 284.68 394.84
  L 282.26 395.14
  A 0.56 0.56 0.0 0 0 282.31 396.25
  C 285.46 396.37 288.22 396.98 291.56 397.15
  Q 295.68 397.37 300.50 398.79
  Q 307.46 400.84 316.45 403.56"
/>
<path stroke="#babab9" vector-effect="non-scaling-stroke" d="
  M 316.45 403.56
  Q 316.03 403.75 315.61 403.95"
/>
<path stroke="#cfcfcf" vector-effect="non-scaling-stroke" d="
  M 315.61 403.95
  Q 301.39 405.62 296.79 419.17
  Q 295.05 424.31 295.07 429.75
  Q 295.14 444.23 299.86 457.71
  A 0.32 0.32 0.0 0 0 300.47 457.69
  L 300.62 457.10"
/>
<path stroke="#6f6f6f" vector-effect="non-scaling-stroke" d="
  M 300.62 457.10
  Q 304.47 472.27 313.09 485.67"
/>
<path stroke="#babab9" vector-effect="non-scaling-stroke" d="
  M 313.09 485.67
  L 312.09 485.62
  Q 311.64 485.60 311.53 485.16
  Q 311.12 483.68 309.88 483.37
  C 307.90 482.89 305.92 482.18 304.26 480.94
  Q 300.56 478.19 296.54 475.91
  Q 296.00 475.60 295.39 475.61
  Q 294.90 475.62 294.46 475.38
  Q 287.59 471.53 279.25 469.11
  Q 275.61 468.05 271.52 466.06
  C 269.56 465.11 267.54 464.90 265.48 464.05
  Q 265.08 463.88 264.82 463.53
  Q 264.50 463.09 264.02 463.36
  Q 263.42 463.71 263.38 463.01
  Q 263.36 462.43 262.92 462.20
  Q 262.51 462.00 262.18 462.32
  L 261.73 462.77
  Q 261.28 463.22 260.72 462.92
  Q 257.87 461.40 254.57 461.98
  Q 253.70 462.14 253.78 461.26
  L 253.82 460.82
  A 0.47 0.47 0.0 0 0 253.32 460.31
  L 252.79 460.36
  Q 252.21 460.41 252.01 459.86
  Q 251.03 457.16 250.33 454.55
  Q 249.63 451.96 248.61 452.93"
/>
<path stroke="#636362" vector-effect="non-scaling-stroke" d="
  M 248.61 452.93
  Q 246.42 444.53 246.00 438.24
  Q 245.05 423.81 253.37 409.89"
/>
<path stroke="#cfcfcf" vector-effect="non-scaling-stroke" d="
  M 253.37 409.89
  Q 262.13 399.87 275.71 396.37
  A 0.33 0.33 0.0 0 0 275.68 395.72
  L 274.83 395.58"
/>
<path stroke="#535353" vector-effect="non-scaling-stroke" d="
  M 375.84 367.85
  Q 375.43 367.81 375.11 367.95
  Q 374.55 368.19 375.11 368.42
  Q 397.66 377.62 419.15 392.58
  Q 420.11 393.25 420.09 394.20
  A 0.21 0.20 25.5 0 1 419.73 394.32
  Q 418.08 392.36 415.79 391.92
  Q 412.85 391.35 412.76 391.32
  Q 407.22 389.60 401.73 387.73
  Q 395.78 385.71 390.58 384.64
  Q 367.92 380.01 354.25 378.86
  Q 322.16 376.16 279.49 378.50
  Q 261.29 379.50 249.50 377.16
  Q 241.49 375.57 236.72 374.95
  Q 233.65 374.55 230.47 373.46
  Q 227.22 372.35 224.19 371.84"
/>
<path stroke="#464646" vector-effect="non-scaling-stroke" d="
  M 595.16 460.16
  L 590.16 478.69"
/>
<path stroke="#3a3a3a" vector-effect="non-scaling-stroke" d="
  M 590.16 478.69
  Q 588.57 481.43 588.73 483.97"
/>
<path stroke="#464646" vector-effect="non-scaling-stroke" d="
  M 497.00 526.42
  Q 516.39 518.39 534.56 508.18"
/>
<path stroke="#3a3a3a" vector-effect="non-scaling-stroke" d="
  M 534.56 508.18
  C 543.48 503.43 551.11 497.34 559.34 491.57
  Q 567.14 486.11 576.05 477.03
  Q 578.38 474.66 579.50 471.26"
/>
<path stroke="#848484" vector-effect="non-scaling-stroke" d="
  M 360.43 528.82
  Q 366.66 532.33 372.79 534.22"
/>
<path stroke="#919191" vector-effect="non-scaling-stroke" d="
  M 372.79 534.22
  Q 384.39 538.38 395.71 538.94"
/>
<path stroke="#a4a4a4" vector-effect="non-scaling-stroke" d="
  M 395.71 538.94
  L 404.11 539.61
  Q 404.13 539.61 404.13 539.62
  Q 404.13 539.64 404.13 539.65
  Q 404.13 539.71 404.13 539.71
  L 403.46 539.76
  Q 401.86 539.89 403.47 539.88
  Q 412.65 539.83 421.75 540.18
  Q 430.56 540.52 439.48 539.02"
/>
<path stroke="#848484" vector-effect="non-scaling-stroke" d="
  M 439.48 539.02
  L 457.75 536.82"
/>
<path stroke="#babab9" vector-effect="non-scaling-stroke" d="
  M 483.54 530.87
  Q 483.79 530.87 483.81 531.29"
/>
<path stroke="#787878" vector-effect="non-scaling-stroke" d="
  M 437.29 542.42
  C 399.49 547.74 362.29 545.86 326.42 532.26"
/>
<path stroke="#666666" vector-effect="non-scaling-stroke" d="
  M 439.48 539.02
  L 434.16 538.25"
/>
<path stroke="#535353" vector-effect="non-scaling-stroke" d="
  M 434.16 538.25
  L 442.65 538.34
  Q 442.75 538.34 442.75 538.23
  Q 442.75 538.12 442.75 537.97
  Q 442.75 537.90 442.68 537.90
  Q 411.65 537.91 399.00 536.61
  Q 390.30 535.71 381.65 534.44
  Q 379.50 534.13 377.38 533.57
  Q 374.43 532.81 372.79 534.22"
/>
<path stroke="#535353" vector-effect="non-scaling-stroke" d="
  M 590.37 478.97
  Q 590.69 478.89 590.16 478.69"
/>
<path stroke="#737373" vector-effect="non-scaling-stroke" d="
  M 434.16 538.25
  Q 427.01 538.04 419.76 538.32
  Q 415.96 538.46 407.75 538.31
  Q 401.72 538.20 395.71 538.94"
/>
<path stroke="#2d2d2d" vector-effect="non-scaling-stroke" d="
  M 308.64 427.57
  Q 308.66 427.23 308.44 426.94
  A 0.39 0.39 0.0 0 0 307.76 427.31
  Q 311.95 439.81 320.76 449.56
  A 0.12 0.11 -43.4 0 0 320.93 449.56
  Q 321.05 449.45 321.15 449.34
  Q 321.35 449.12 321.17 448.89
  Q 313.67 439.34 308.76 428.22
  Q 308.62 427.91 308.64 427.57"
/>
</g>
<path fill="#868686" d="
  M 368.06 243.91
  L 341.31 244.07
  C 346.26 236.33 349.81 229.94 354.43 226.21
  A 0.78 0.78 0.0 0 1 355.33 226.15
  Q 356.97 227.13 358.28 228.99
  Q 364.37 237.63 368.06 243.91
  Z"
/>
<path fill="#141414" d="
  M 368.06 243.91
  Q 369.40 245.99 368.18 247.67
  Q 361.58 256.44 356.34 266.07
  Q 355.55 267.20 354.57 267.77
  Q 354.08 268.05 353.78 267.57
  L 351.72 264.30
  Q 347.27 255.07 340.67 247.19
  Q 340.02 245.48 341.31 244.07
  L 368.06 243.91
  Z"
/>
<path fill="#5f5f5f" d="
  M 340.67 247.19
  Q 347.27 255.07 351.72 264.30
  L 340.67 247.19
  Z"
/>
<path fill="#5f5f5f" d="
  M 368.18 247.67
  Q 362.83 257.39 356.34 266.07
  Q 361.58 256.44 368.18 247.67
  Z"
/>
<path fill="#c2c2c2" d="
  M 331.09 289.48
  Q 331.04 289.92 330.16 289.79
  Q 298.87 286.29 273.38 302.88
  Q 252.04 316.75 235.38 339.04
  Q 221.24 358.02 211.39 380.79
  Q 206.03 392.38 202.89 405.84
  Q 200.27 415.56 199.01 425.58
  Q 198.22 431.90 198.22 442.97
  Q 198.21 451.70 198.07 460.44
  Q 198.07 460.63 198.25 460.63
  Q 198.39 460.63 198.54 460.64
  Q 198.81 460.67 198.81 460.40
  C 198.91 455.36 198.52 449.87 200.12 445.24
  C 202.30 438.92 206.94 433.34 209.94 428.53
  L 212.64 425.81
  L 219.10 420.41
  A 1.16 1.14 28.6 0 1 220.00 420.15
  Q 221.17 420.29 222.10 419.62
  Q 222.46 419.36 222.90 419.44
  Q 229.19 420.53 233.02 420.41
  Q 238.61 420.23 242.79 421.62
  C 232.26 437.95 229.40 457.87 231.63 476.90
  C 235.62 511.02 259.80 542.75 286.18 563.41
  Q 287.36 566.57 291.97 568.82
  Q 292.50 569.07 291.95 569.27
  L 291.61 569.39
  Q 291.20 569.53 290.87 569.25
  Q 289.94 568.43 288.94 568.81
  Q 288.39 569.02 287.85 568.79
  Q 282.55 566.58 280.67 564.56
  Q 274.78 558.23 267.10 554.63
  Q 263.28 552.83 260.90 551.11
  Q 251.64 544.42 241.85 538.50
  Q 241.39 538.22 241.08 538.66
  L 240.83 539.00
  A 0.35 0.34 51.5 0 1 240.24 538.93
  L 239.72 537.77
  Q 239.45 537.18 238.92 537.54
  Q 238.29 537.96 237.83 537.24
  Q 237.49 536.72 237.01 537.10
  Q 235.56 538.22 233.71 537.86
  Q 233.19 537.76 232.85 537.36
  Q 231.57 535.84 229.70 535.85
  Q 229.37 535.86 229.16 535.60
  Q 228.43 534.69 227.05 535.05
  Q 226.59 535.18 226.19 534.91
  Q 225.06 534.16 224.81 532.86
  Q 224.70 532.33 224.26 532.01
  Q 223.09 531.15 222.84 529.72
  Q 222.75 529.22 222.37 528.88
  C 221.92 528.49 221.67 528.38 221.40 527.80
  Q 219.18 523.05 215.36 519.44
  Q 199.17 491.10 196.82 457.72
  Q 194.79 430.28 202.33 403.25
  Q 208.10 382.58 218.60 363.73
  Q 230.72 340.95 248.62 322.14
  Q 254.38 316.17 260.35 310.30
  Q 262.57 308.13 265.92 306.16
  Q 270.08 303.72 273.89 300.71
  Q 300.20 285.59 331.09 289.48
  Z"
/>
<path fill="#141414" d="
  M 330.16 289.79
  L 343.77 293.33
  C 365.78 301.92 383.32 318.25 397.18 337.56
  Q 410.47 356.08 423.28 374.96
  Q 439.04 399.34 455.39 418.46
  Q 469.34 434.79 487.95 448.79
  C 491.46 451.43 495.69 453.84 499.96 456.54
  Q 520.16 469.29 544.79 473.93
  Q 545.89 480.43 546.17 487.48
  C 546.24 489.37 547.03 491.66 546.18 494.12
  Q 546.02 494.60 546.08 495.09
  Q 546.36 497.24 545.71 499.21
  Q 545.15 500.94 543.15 502.27
  Q 538.70 505.25 534.00 507.82
  L 509.45 520.39
  Q 508.47 519.73 507.96 520.21
  Q 507.63 520.51 507.63 520.07
  L 507.63 519.54
  Q 507.63 519.26 507.91 519.25
  Q 509.46 519.24 509.88 517.90
  A 0.44 0.43 10.5 0 0 509.48 517.33
  C 506.31 517.21 498.37 516.36 497.57 513.24
  Q 497.44 512.75 496.95 512.75
  C 493.76 512.69 492.10 514.36 489.83 515.39
  C 464.20 527.03 434.61 532.07 407.00 524.50
  Q 382.80 517.87 359.14 504.10
  Q 336.22 490.77 318.56 468.72
  Q 312.15 460.72 308.02 451.43
  Q 306.76 448.62 304.38 440.81
  Q 302.78 435.58 300.69 430.19
  Q 301.69 422.19 306.41 414.12
  Q 306.82 413.42 306.86 414.23
  C 307.47 427.84 316.41 442.04 325.79 451.95
  C 347.81 475.23 380.28 489.54 412.72 486.23
  Q 440.97 483.37 465.76 470.57
  Q 476.77 466.12 487.35 458.59
  Q 489.45 457.85 491.14 456.04
  A 1.06 1.05 42.2 0 0 491.06 454.53
  L 470.17 436.24
  L 447.31 412.47
  Q 446.50 410.83 445.70 409.25
  Q 444.89 407.66 443.77 406.20
  Q 434.86 394.61 426.51 382.63
  C 425.11 380.62 423.03 378.62 421.40 376.58
  Q 420.07 374.90 418.23 373.99
  Q 414.84 372.31 411.58 370.38
  Q 406.92 367.63 405.01 366.66
  Q 383.64 355.88 360.13 351.11
  Q 359.65 351.01 359.25 350.72
  C 358.52 350.18 357.62 350.39 356.94 350.28
  C 351.43 349.39 346.51 348.75 340.41 347.65
  Q 329.72 345.71 320.51 346.12
  Q 304.31 346.84 293.99 346.63
  C 290.21 346.55 286.75 347.07 283.11 347.56
  Q 283.05 347.57 275.34 348.24
  Q 270.67 348.64 266.75 350.27
  Q 265.23 350.91 264.03 351.17
  Q 261.33 351.78 261.29 351.79
  Q 256.22 353.34 250.92 354.31
  Q 250.39 354.41 250.78 354.04
  L 252.73 352.17
  Q 253.15 351.77 253.72 351.70
  L 257.68 351.22
  Q 258.17 351.16 258.40 350.72
  Q 258.87 349.82 259.77 349.42
  Q 262.97 348.00 266.30 346.85
  Q 266.74 346.69 266.91 346.26
  Q 267.71 344.26 265.76 343.74
  Q 257.90 341.66 248.12 341.66
  A 1.60 1.51 60.0 0 1 247.28 341.41
  Q 246.47 340.89 245.82 341.45
  Q 245.37 341.83 244.89 341.48
  Q 243.73 340.62 242.54 341.20
  A 1.10 1.07 44.3 0 1 241.61 341.20
  Q 238.09 339.48 235.03 341.84
  Q 234.80 342.02 234.54 341.89
  Q 234.38 341.81 234.22 341.73
  A 0.34 0.34 0.0 0 1 234.19 341.14
  Q 235.33 340.40 235.38 339.04
  Q 252.04 316.75 273.38 302.88
  Q 298.87 286.29 330.16 289.79
  Z
  M 308.64 427.57
  Q 308.66 427.23 308.44 426.94
  A 0.39 0.39 0.0 0 0 307.76 427.31
  Q 311.95 439.81 320.76 449.56
  A 0.12 0.11 -43.4 0 0 320.93 449.56
  Q 321.05 449.45 321.15 449.34
  Q 321.35 449.12 321.17 448.89
  Q 313.67 439.34 308.76 428.22
  Q 308.62 427.91 308.64 427.57
  Z"
/>
<path fill="#868686" d="
  M 331.09 289.48
  L 344.26 292.95
  Q 344.05 293.22 343.77 293.33
  L 330.16 289.79
  Q 331.04 289.92 331.09 289.48
  Z"
/>
<path fill="#5f5f5f" d="
  M 344.26 292.95
  C 365.15 300.76 382.88 317.32 396.05 335.21
  Q 410.25 354.48 423.38 374.50
  Q 423.17 374.69 423.28 374.96
  Q 410.47 356.08 397.18 337.56
  C 383.32 318.25 365.78 301.92 343.77 293.33
  Q 344.05 293.22 344.26 292.95
  Z"
/>
<path fill="#868686" d="
  M 273.89 300.71
  Q 270.08 303.72 265.92 306.16
  Q 262.57 308.13 260.35 310.30
  Q 254.38 316.17 248.62 322.14
  Q 245.61 322.97 243.05 321.57
  A 0.94 0.91 57.9 0 0 242.56 321.45
  Q 239.22 321.54 236.75 323.71
  A 1.72 1.67 18.0 0 1 235.96 324.10
  C 232.75 324.72 230.14 326.94 226.77 325.80
  Q 225.25 325.28 225.70 323.98
  Q 241.43 314.65 258.00 306.91
  C 263.12 304.52 268.49 302.66 273.89 300.71
  Z"
/>
<path fill="#464646" d="
  M 248.62 322.14
  Q 230.72 340.95 218.60 363.73
  Q 218.53 363.03 218.35 362.74
  Q 218.16 362.44 217.60 362.79
  Q 216.94 363.21 216.28 363.65
  Q 215.84 363.94 215.56 364.40
  L 210.73 372.38
  Q 210.51 372.73 210.14 372.91
  Q 204.63 375.54 202.11 377.85
  Q 190.85 388.14 178.74 392.97
  Q 169.79 396.54 160.85 400.07
  Q 156.64 401.74 150.55 401.38
  Q 168.77 369.42 196.91 345.41
  Q 197.35 345.03 197.02 344.44
  Q 210.42 333.01 225.70 323.98
  Q 225.25 325.28 226.77 325.80
  C 230.14 326.94 232.75 324.72 235.96 324.10
  A 1.72 1.67 18.0 0 0 236.75 323.71
  Q 239.22 321.54 242.56 321.45
  A 0.94 0.91 57.9 0 1 243.05 321.57
  Q 245.61 322.97 248.62 322.14
  Z"
/>
<path fill="#2d2d2d" d="
  M 235.38 339.04
  Q 235.33 340.40 234.19 341.14
  A 0.34 0.34 0.0 0 0 234.22 341.73
  Q 234.38 341.81 234.54 341.89
  Q 234.80 342.02 235.03 341.84
  Q 238.09 339.48 241.61 341.20
  A 1.10 1.07 44.3 0 0 242.54 341.20
  Q 243.73 340.62 244.89 341.48
  Q 245.37 341.83 245.82 341.45
  Q 246.47 340.89 247.28 341.41
  A 1.60 1.51 60.0 0 0 248.12 341.66
  Q 257.90 341.66 265.76 343.74
  Q 267.71 344.26 266.91 346.26
  Q 266.74 346.69 266.30 346.85
  Q 262.97 348.00 259.77 349.42
  Q 258.87 349.82 258.40 350.72
  Q 258.17 351.16 257.68 351.22
  L 253.72 351.70
  Q 253.15 351.77 252.73 352.17
  L 250.78 354.04
  Q 250.39 354.41 250.92 354.31
  Q 256.22 353.34 261.29 351.79
  Q 261.33 351.78 264.03 351.17
  Q 265.23 350.91 266.75 350.27
  Q 270.67 348.64 275.34 348.24
  Q 283.05 347.57 283.11 347.56
  C 286.75 347.07 290.21 346.55 293.99 346.63
  Q 304.31 346.84 320.51 346.12
  Q 329.72 345.71 340.41 347.65
  C 346.51 348.75 351.43 349.39 356.94 350.28
  C 357.62 350.39 358.52 350.18 359.25 350.72
  Q 359.65 351.01 360.13 351.11
  Q 383.64 355.88 405.01 366.66
  Q 406.92 367.63 411.58 370.38
  Q 414.84 372.31 418.23 373.99
  Q 420.07 374.90 421.40 376.58
  C 423.03 378.62 425.11 380.62 426.51 382.63
  Q 434.86 394.61 443.77 406.20
  Q 444.89 407.66 445.70 409.25
  Q 446.50 410.83 447.31 412.47
  Q 432.60 400.95 420.87 392.63
  Q 400.09 377.88 375.84 367.85
  Q 362.69 362.44 348.93 359.06
  Q 347.38 358.68 345.59 358.08
  Q 343.14 357.25 342.24 357.17
  Q 338.36 356.85 334.54 356.12
  Q 328.62 354.99 326.92 354.75
  Q 324.20 354.38 321.47 354.02
  C 312.44 352.86 302.17 353.59 293.03 353.80
  Q 284.71 354.00 277.54 355.06
  Q 269.29 356.28 262.25 357.86
  Q 242.64 362.28 224.19 371.84
  Q 217.37 375.67 211.39 380.79
  Q 221.24 358.02 235.38 339.04
  Z"
/>
<path fill="#c2c2c2" d="
  M 197.02 344.44
  Q 197.35 345.03 196.91 345.41
  Q 168.77 369.42 150.55 401.38
  Q 131.83 434.48 128.76 472.00
  Q 126.92 524.31 160.84 563.27
  Q 160.68 563.50 160.54 563.51
  Q 130.76 530.40 128.27 487.39
  C 125.08 432.41 155.30 379.40 197.02 344.44
  Z"
/>
<path fill="#464646" d="
  M 375.84 367.85
  Q 375.43 367.81 375.11 367.95
  Q 374.55 368.19 375.11 368.42
  Q 397.66 377.62 419.15 392.58
  Q 420.11 393.25 420.09 394.20
  A 0.21 0.20 25.5 0 1 419.73 394.32
  Q 418.08 392.36 415.79 391.92
  Q 412.85 391.35 412.76 391.32
  Q 407.22 389.60 401.73 387.73
  Q 395.78 385.71 390.58 384.64
  Q 367.92 380.01 354.25 378.86
  Q 322.16 376.16 279.49 378.50
  Q 261.29 379.50 249.50 377.16
  Q 241.49 375.57 236.72 374.95
  Q 233.65 374.55 230.47 373.46
  Q 227.22 372.35 224.19 371.84
  Q 242.64 362.28 262.25 357.86
  Q 269.29 356.28 277.54 355.06
  Q 284.71 354.00 293.03 353.80
  C 302.17 353.59 312.44 352.86 321.47 354.02
  Q 324.20 354.38 326.92 354.75
  Q 328.62 354.99 334.54 356.12
  Q 338.36 356.85 342.24 357.17
  Q 343.14 357.25 345.59 358.08
  Q 347.38 358.68 348.93 359.06
  Q 362.69 362.44 375.84 367.85
  Z"
/>
<path fill="#2d2d2d" d="
  M 218.60 363.73
  Q 208.10 382.58 202.33 403.25
  Q 194.79 430.28 196.82 457.72
  Q 195.04 461.56 196.43 467.28
  Q 197.00 469.60 196.63 473.09
  Q 196.63 473.10 196.69 474.09
  Q 196.72 474.50 196.43 474.81
  Q 196.11 475.15 196.40 475.51
  Q 197.32 476.67 196.75 478.23
  Q 196.58 478.66 196.37 478.25
  Q 195.14 475.89 195.09 473.18
  A 0.79 0.78 85.5 0 0 194.20 472.41
  Q 192.88 472.58 192.60 471.32
  A 1.57 1.57 0.0 0 0 191.04 470.08
  Q 187.22 470.14 183.63 471.49
  Q 183.20 471.65 182.83 471.37
  C 181.33 470.21 179.93 470.60 178.59 470.37
  Q 173.29 469.44 167.97 470.52
  Q 167.50 470.62 167.36 471.08
  Q 167.04 472.12 165.75 472.03
  Q 162.63 471.80 159.64 472.84
  Q 159.13 473.01 158.69 472.69
  Q 157.80 472.03 157.14 472.86
  Q 156.80 473.29 156.26 473.29
  C 154.45 473.31 153.55 473.29 151.33 473.01
  Q 149.71 472.81 148.13 473.56
  Q 147.72 473.75 147.42 474.10
  Q 147.08 474.50 146.61 474.60
  Q 146.29 474.67 146.15 474.37
  L 145.85 473.74
  Q 145.69 473.41 145.35 473.53
  Q 140.98 474.96 136.28 474.72
  A 1.58 1.55 69.6 0 1 135.20 474.21
  Q 133.15 471.99 131.12 474.35
  A 0.73 0.72 39.4 0 1 130.12 474.44
  Q 128.95 473.52 128.76 472.00
  Q 131.83 434.48 150.55 401.38
  Q 156.64 401.74 160.85 400.07
  Q 169.79 396.54 178.74 392.97
  Q 190.85 388.14 202.11 377.85
  Q 204.63 375.54 210.14 372.91
  Q 210.51 372.73 210.73 372.38
  L 215.56 364.40
  Q 215.84 363.94 216.28 363.65
  Q 216.94 363.21 217.60 362.79
  Q 218.16 362.44 218.35 362.74
  Q 218.53 363.03 218.60 363.73
  Z"
/>
<path fill="#5f5f5f" d="
  M 375.84 367.85
  Q 400.09 377.88 420.87 392.63
  Q 432.60 400.95 447.31 412.47
  L 470.17 436.24
  Q 469.58 435.99 468.80 436.62
  Q 468.40 436.93 467.97 436.67
  Q 459.18 431.43 449.50 428.15
  Q 429.43 421.33 409.25 414.90
  Q 404.65 413.43 395.62 411.80
  Q 390.11 410.81 381.93 409.13
  Q 368.97 406.47 356.99 405.68
  C 350.59 405.25 343.54 405.73 336.39 405.72
  Q 333.67 405.72 331.01 406.63
  Q 330.51 406.80 330.09 406.47
  Q 328.73 405.43 327.52 407.20
  C 314.73 400.02 299.60 394.60 284.77 394.42
  L 274.83 395.58
  Q 237.60 398.70 212.64 425.81
  L 209.94 428.53
  Q 210.70 426.49 212.63 424.99
  Q 213.08 424.64 212.83 424.12
  Q 212.46 423.36 213.25 423.10
  A 1.41 1.25 31.5 0 0 212.48 420.58
  Q 211.73 420.60 210.83 419.68
  Q 210.30 419.14 209.87 418.17
  Q 207.61 413.10 205.79 407.87
  Q 205.64 407.42 205.19 407.58
  L 204.68 407.77
  A 0.39 0.39 0.0 0 1 204.15 407.41
  L 204.11 405.06
  Q 204.10 404.55 203.68 404.85
  Q 203.24 405.18 202.89 405.84
  Q 206.03 392.38 211.39 380.79
  Q 217.37 375.67 224.19 371.84
  Q 227.22 372.35 230.47 373.46
  Q 233.65 374.55 236.72 374.95
  Q 241.49 375.57 249.50 377.16
  Q 261.29 379.50 279.49 378.50
  Q 322.16 376.16 354.25 378.86
  Q 367.92 380.01 390.58 384.64
  Q 395.78 385.71 401.73 387.73
  Q 407.22 389.60 412.76 391.32
  Q 412.85 391.35 415.79 391.92
  Q 418.08 392.36 419.73 394.32
  A 0.21 0.20 25.5 0 0 420.09 394.20
  Q 420.11 393.25 419.15 392.58
  Q 397.66 377.62 375.11 368.42
  Q 374.55 368.19 375.11 367.95
  Q 375.43 367.81 375.84 367.85
  Z"
/>
<path fill="#868686" d="
  M 423.38 374.50
  Q 432.91 388.09 442.87 401.35
  Q 444.76 403.87 448.95 408.13
  Q 452.96 412.20 456.12 417.02
  Q 456.16 417.08 456.13 417.13
  A 0.09 0.08 39.7 0 1 456.00 417.13
  L 454.70 415.67
  A 0.28 0.28 0.0 0 0 454.29 416.04
  Q 469.14 432.79 486.27 446.52
  Q 512.14 467.24 542.52 472.75
  Q 552.03 474.48 566.25 473.30
  Q 584.28 471.80 592.84 457.49
  Q 589.11 466.01 579.50 471.26
  Q 562.54 476.30 544.79 473.93
  Q 520.16 469.29 499.96 456.54
  C 495.69 453.84 491.46 451.43 487.95 448.79
  Q 469.34 434.79 455.39 418.46
  Q 439.04 399.34 423.28 374.96
  Q 423.17 374.69 423.38 374.50
  Z"
/>
<path fill="#b1b1b0" d="
  M 284.77 394.42
  Q 284.73 394.63 284.68 394.84
  L 282.26 395.14
  A 0.56 0.56 0.0 0 0 282.31 396.25
  C 285.46 396.37 288.22 396.98 291.56 397.15
  Q 295.68 397.37 300.50 398.79
  Q 307.46 400.84 316.45 403.56
  Q 316.03 403.75 315.61 403.95
  Q 301.39 405.62 296.79 419.17
  Q 295.05 424.31 295.07 429.75
  Q 295.14 444.23 299.86 457.71
  A 0.32 0.32 0.0 0 0 300.47 457.69
  L 300.62 457.10
  Q 304.47 472.27 313.09 485.67
  L 312.09 485.62
  Q 311.64 485.60 311.53 485.16
  Q 311.12 483.68 309.88 483.37
  C 307.90 482.89 305.92 482.18 304.26 480.94
  Q 300.56 478.19 296.54 475.91
  Q 296.00 475.60 295.39 475.61
  Q 294.90 475.62 294.46 475.38
  Q 287.59 471.53 279.25 469.11
  Q 275.61 468.05 271.52 466.06
  C 269.56 465.11 267.54 464.90 265.48 464.05
  Q 265.08 463.88 264.82 463.53
  Q 264.50 463.09 264.02 463.36
  Q 263.42 463.71 263.38 463.01
  Q 263.36 462.43 262.92 462.20
  Q 262.51 462.00 262.18 462.32
  L 261.73 462.77
  Q 261.28 463.22 260.72 462.92
  Q 257.87 461.40 254.57 461.98
  Q 253.70 462.14 253.78 461.26
  L 253.82 460.82
  A 0.47 0.47 0.0 0 0 253.32 460.31
  L 252.79 460.36
  Q 252.21 460.41 252.01 459.86
  Q 251.03 457.16 250.33 454.55
  Q 249.63 451.96 248.61 452.93
  Q 246.42 444.53 246.00 438.24
  Q 245.05 423.81 253.37 409.89
  Q 262.13 399.87 275.71 396.37
  A 0.33 0.33 0.0 0 0 275.68 395.72
  L 274.83 395.58
  L 284.77 394.42
  Z"
/>
<path fill="#c2c2c2" d="
  M 327.52 407.20
  Q 340.85 415.10 353.02 424.53
  Q 366.58 435.56 374.24 444.01
  Q 376.63 446.65 378.35 448.26
  Q 381.70 451.40 382.56 452.37
  Q 386.94 457.29 391.69 461.82
  Q 394.97 464.95 399.45 467.54
  Q 405.17 470.85 410.87 474.17
  C 413.51 475.71 416.46 478.62 419.96 479.95
  Q 421.40 480.50 422.34 481.20
  Q 423.53 482.08 424.78 482.93
  Q 425.20 483.21 425.69 483.11
  Q 446.09 478.94 465.76 470.57
  Q 440.97 483.37 412.72 486.23
  Q 413.69 484.99 411.25 484.96
  Q 408.93 484.93 408.03 482.94
  Q 407.83 482.49 407.38 482.26
  C 404.55 480.84 403.09 478.67 400.79 476.62
  Q 399.58 475.53 398.77 474.13
  C 397.80 472.47 396.74 471.75 395.10 471.13
  Q 394.54 470.92 394.27 470.39
  L 393.15 468.24
  Q 393.09 468.12 392.95 468.12
  L 392.66 468.12
  Q 392.21 468.12 391.93 467.75
  Q 374.77 444.85 352.85 426.59
  C 344.74 419.83 335.73 414.09 326.56 408.67
  Q 321.23 405.53 315.61 403.95
  Q 316.03 403.75 316.45 403.56
  Q 300.96 395.59 284.68 394.84
  Q 284.73 394.63 284.77 394.42
  C 299.60 394.60 314.73 400.02 327.52 407.20
  Z"
/>
<path fill="#5f5f5f" d="
  M 284.68 394.84
  Q 300.96 395.59 316.45 403.56
  Q 307.46 400.84 300.50 398.79
  Q 295.68 397.37 291.56 397.15
  C 288.22 396.98 285.46 396.37 282.31 396.25
  A 0.56 0.56 0.0 0 1 282.26 395.14
  L 284.68 394.84
  Z"
/>
<path fill="#ededed" d="
  M 274.83 395.58
  L 275.68 395.72
  A 0.33 0.33 0.0 0 1 275.71 396.37
  Q 262.13 399.87 253.37 409.89
  Q 246.89 414.60 242.79 421.62
  Q 238.61 420.23 233.02 420.41
  Q 229.19 420.53 222.90 419.44
  Q 222.46 419.36 222.10 419.62
  Q 221.17 420.29 220.00 420.15
  A 1.16 1.14 28.6 0 0 219.10 420.41
  L 212.64 425.81
  Q 237.60 398.70 274.83 395.58
  Z"
/>
<path fill="#ededed" d="
  M 315.61 403.95
  Q 321.23 405.53 326.56 408.67
  C 335.73 414.09 344.74 419.83 352.85 426.59
  Q 374.77 444.85 391.93 467.75
  Q 392.21 468.12 392.66 468.12
  L 392.95 468.12
  Q 393.09 468.12 393.15 468.24
  L 394.27 470.39
  Q 394.54 470.92 395.10 471.13
  C 396.74 471.75 397.80 472.47 398.77 474.13
  Q 399.58 475.53 400.79 476.62
  C 403.09 478.67 404.55 480.84 407.38 482.26
  Q 407.83 482.49 408.03 482.94
  Q 408.93 484.93 411.25 484.96
  Q 413.69 484.99 412.72 486.23
  C 380.28 489.54 347.81 475.23 325.79 451.95
  C 316.41 442.04 307.47 427.84 306.86 414.23
  Q 306.82 413.42 306.41 414.12
  Q 301.69 422.19 300.69 430.19
  Q 297.16 444.00 300.62 457.10
  L 300.47 457.69
  A 0.32 0.32 0.0 0 1 299.86 457.71
  Q 295.14 444.23 295.07 429.75
  Q 295.05 424.31 296.79 419.17
  Q 301.39 405.62 315.61 403.95
  Z"
/>
<path fill="#868686" d="
  M 209.94 428.53
  C 206.94 433.34 202.30 438.92 200.12 445.24
  C 198.52 449.87 198.91 455.36 198.81 460.40
  Q 198.81 460.67 198.54 460.64
  Q 198.39 460.63 198.25 460.63
  Q 198.07 460.63 198.07 460.44
  Q 198.21 451.70 198.22 442.97
  Q 198.22 431.90 199.01 425.58
  Q 200.27 415.56 202.89 405.84
  Q 203.24 405.18 203.68 404.85
  Q 204.10 404.55 204.11 405.06
  L 204.15 407.41
  A 0.39 0.39 0.0 0 0 204.68 407.77
  L 205.19 407.58
  Q 205.64 407.42 205.79 407.87
  Q 207.61 413.10 209.87 418.17
  Q 210.30 419.14 210.83 419.68
  Q 211.73 420.60 212.48 420.58
  A 1.41 1.25 31.5 0 1 213.25 423.10
  Q 212.46 423.36 212.83 424.12
  Q 213.08 424.64 212.63 424.99
  Q 210.70 426.49 209.94 428.53
  Z"
/>
<path fill="#868686" d="
  M 470.17 436.24
  L 491.06 454.53
  A 1.06 1.05 42.2 0 1 491.14 456.04
  Q 489.45 457.85 487.35 458.59
  Q 485.16 458.81 483.23 459.89
  A 0.16 0.16 0.0 0 1 483.00 459.75
  Q 483.00 459.62 483.01 459.50
  Q 483.03 459.25 482.79 459.20
  Q 478.56 458.27 472.99 455.44
  Q 468.47 453.15 455.55 447.27
  Q 451.63 445.48 445.82 443.36
  Q 441.79 441.88 436.00 439.63
  Q 421.80 434.11 402.39 429.33
  C 400.91 428.97 399.28 428.95 397.68 428.50
  Q 394.66 427.65 394.22 427.57
  C 382.06 425.28 369.96 425.30 357.62 425.11
  Q 357.13 425.11 356.67 425.29
  Q 355.04 425.97 353.02 424.53
  Q 340.85 415.10 327.52 407.20
  Q 328.73 405.43 330.09 406.47
  Q 330.51 406.80 331.01 406.63
  Q 333.67 405.72 336.39 405.72
  C 343.54 405.73 350.59 405.25 356.99 405.68
  Q 368.97 406.47 381.93 409.13
  Q 390.11 410.81 395.62 411.80
  Q 404.65 413.43 409.25 414.90
  Q 429.43 421.33 449.50 428.15
  Q 459.18 431.43 467.97 436.67
  Q 468.40 436.93 468.80 436.62
  Q 469.58 435.99 470.17 436.24
  Z"
/>
<path fill="#141414" d="
  M 253.37 409.89
  Q 245.05 423.81 246.00 438.24
  Q 246.42 444.53 248.61 452.93
  C 259.58 490.78 290.64 517.70 326.42 532.26
  L 327.27 533.92
  Q 327.50 534.37 327.97 534.53
  Q 332.18 535.95 336.43 537.28
  C 338.10 537.80 339.10 538.79 341.34 538.32
  A 0.33 0.31 -32.8 0 1 341.56 538.36
  Q 341.86 538.53 341.87 538.79
  Q 341.90 539.13 342.22 539.22
  Q 378.20 549.90 415.54 546.61
  C 420.97 546.13 428.83 546.15 434.49 544.78
  Q 435.28 544.58 437.96 543.02
  A 0.31 0.31 0.0 0 0 437.94 542.48
  Q 437.65 542.33 437.29 542.42
  Q 460.98 538.62 483.81 531.29
  L 496.73 526.46
  Q 496.86 526.44 497.00 526.42
  L 505.44 524.23
  Q 505.60 524.19 505.63 524.02
  Q 505.66 523.88 505.74 523.77
  Q 505.83 523.62 506.08 523.55
  Q 508.89 522.82 511.63 521.86
  Q 512.43 521.59 512.11 522.37
  L 511.97 522.74
  Q 511.82 523.12 511.41 523.12
  L 510.75 523.12
  Q 510.24 523.12 509.80 523.38
  L 504.50 526.51
  A 0.88 0.88 0.0 0 0 504.93 528.14
  Q 506.42 528.17 507.47 528.91
  A 0.90 0.90 0.0 0 0 508.89 528.30
  Q 509.09 526.84 510.61 527.11
  A 0.79 0.79 0.0 0 1 511.08 528.39
  Q 510.47 529.13 511.85 529.64
  Q 514.33 530.55 516.73 531.78
  Q 517.38 532.11 519.14 533.32
  Q 520.56 534.28 521.72 534.55
  Q 523.92 535.05 525.54 535.79
  Q 527.94 536.89 529.18 537.32
  Q 532.70 538.54 536.77 541.36
  Q 538.32 542.43 540.27 541.34
  A 1.20 1.19 37.2 0 1 541.16 541.22
  Q 546.07 542.45 549.19 546.40
  Q 522.79 573.05 488.54 588.64
  L 468.77 595.90
  Q 449.45 601.04 425.25 601.65
  Q 394.70 602.41 367.86 598.42
  C 338.32 594.01 310.09 581.34 286.18 563.41
  C 259.80 542.75 235.62 511.02 231.63 476.90
  C 229.40 457.87 232.26 437.95 242.79 421.62
  Q 246.89 414.60 253.37 409.89
  Z"
/>
<path fill="#b1b1b0" d="
  M 353.02 424.53
  Q 355.04 425.97 356.67 425.29
  Q 357.13 425.11 357.62 425.11
  C 369.96 425.30 382.06 425.28 394.22 427.57
  Q 394.66 427.65 397.68 428.50
  C 399.28 428.95 400.91 428.97 402.39 429.33
  Q 421.80 434.11 436.00 439.63
  Q 441.79 441.88 445.82 443.36
  Q 451.63 445.48 455.55 447.27
  Q 468.47 453.15 472.99 455.44
  Q 478.56 458.27 482.79 459.20
  Q 483.03 459.25 483.01 459.50
  Q 483.00 459.62 483.00 459.75
  A 0.16 0.16 0.0 0 0 483.23 459.89
  Q 485.16 458.81 487.35 458.59
  Q 476.77 466.12 465.76 470.57
  Q 446.09 478.94 425.69 483.11
  Q 425.20 483.21 424.78 482.93
  Q 423.53 482.08 422.34 481.20
  Q 421.40 480.50 419.96 479.95
  C 416.46 478.62 413.51 475.71 410.87 474.17
  Q 405.17 470.85 399.45 467.54
  Q 394.97 464.95 391.69 461.82
  Q 386.94 457.29 382.56 452.37
  Q 381.70 451.40 378.35 448.26
  Q 376.63 446.65 374.24 444.01
  Q 366.58 435.56 353.02 424.53
  Z"
/>
<path fill="#464646" d="
  M 308.76 428.22
  Q 313.67 439.34 321.17 448.89
  Q 321.35 449.12 321.15 449.34
  Q 321.05 449.45 320.93 449.56
  A 0.12 0.11 -43.4 0 1 320.76 449.56
  Q 311.95 439.81 307.76 427.31
  A 0.39 0.39 0.0 0 1 308.44 426.94
  Q 308.66 427.23 308.64 427.57
  Q 308.62 427.91 308.76 428.22
  Z"
/>
<path fill="#2d2d2d" d="
  M 300.69 430.19
  Q 302.78 435.58 304.38 440.81
  Q 306.76 448.62 308.02 451.43
  Q 312.15 460.72 318.56 468.72
  Q 336.22 490.77 359.14 504.10
  Q 382.80 517.87 407.00 524.50
  C 434.61 532.07 464.20 527.03 489.83 515.39
  C 492.10 514.36 493.76 512.69 496.95 512.75
  Q 497.44 512.75 497.57 513.24
  C 498.37 516.36 506.31 517.21 509.48 517.33
  A 0.44 0.43 10.5 0 1 509.88 517.90
  Q 509.46 519.24 507.91 519.25
  Q 507.63 519.26 507.63 519.54
  L 507.63 520.07
  Q 507.63 520.51 507.96 520.21
  Q 508.47 519.73 509.45 520.39
  L 496.43 526.15
  L 483.54 530.87
  Q 470.81 534.83 457.75 536.82
  Q 452.00 536.65 448.50 536.83
  Q 448.32 536.84 448.21 537.05
  Q 448.09 537.30 447.81 537.32
  C 442.33 537.66 435.95 536.65 431.72 536.52
  C 426.25 536.36 420.89 536.44 415.45 535.88
  Q 404.74 534.79 394.00 534.12
  Q 384.43 533.52 366.49 528.92
  Q 366.17 528.84 365.21 528.88
  Q 364.82 528.89 364.47 528.74
  L 360.83 527.13
  Q 359.98 526.75 360.18 527.66
  L 360.43 528.82
  Q 330.95 513.61 313.09 485.67
  Q 304.47 472.27 300.62 457.10
  Q 297.16 444.00 300.69 430.19
  Z"
/>
<path fill="#c2c2c2" d="
  M 313.09 485.67
  Q 330.95 513.61 360.43 528.82
  Q 366.66 532.33 372.79 534.22
  Q 384.39 538.38 395.71 538.94
  L 404.11 539.61
  Q 404.13 539.61 404.13 539.62
  Q 404.13 539.64 404.13 539.65
  Q 404.13 539.71 404.13 539.71
  L 403.46 539.76
  Q 401.86 539.89 403.47 539.88
  Q 412.65 539.83 421.75 540.18
  Q 430.56 540.52 439.48 539.02
  L 457.75 536.82
  Q 470.81 534.83 483.54 530.87
  Q 483.79 530.87 483.81 531.29
  Q 460.98 538.62 437.29 542.42
  C 399.49 547.74 362.29 545.86 326.42 532.26
  C 290.64 517.70 259.58 490.78 248.61 452.93
  Q 249.63 451.96 250.33 454.55
  Q 251.03 457.16 252.01 459.86
  Q 252.21 460.41 252.79 460.36
  L 253.32 460.31
  A 0.47 0.47 0.0 0 1 253.82 460.82
  L 253.78 461.26
  Q 253.70 462.14 254.57 461.98
  Q 257.87 461.40 260.72 462.92
  Q 261.28 463.22 261.73 462.77
  L 262.18 462.32
  Q 262.51 462.00 262.92 462.20
  Q 263.36 462.43 263.38 463.01
  Q 263.42 463.71 264.02 463.36
  Q 264.50 463.09 264.82 463.53
  Q 265.08 463.88 265.48 464.05
  C 267.54 464.90 269.56 465.11 271.52 466.06
  Q 275.61 468.05 279.25 469.11
  Q 287.59 471.53 294.46 475.38
  Q 294.90 475.62 295.39 475.61
  Q 296.00 475.60 296.54 475.91
  Q 300.56 478.19 304.26 480.94
  C 305.92 482.18 307.90 482.89 309.88 483.37
  Q 311.12 483.68 311.53 485.16
  Q 311.64 485.60 312.09 485.62
  L 313.09 485.67
  Z"
/>
<path fill="#2d2d2d" d="
  M 595.16 460.16
  L 590.16 478.69
  Q 588.57 481.43 588.73 483.97
  Q 575.64 519.26 549.19 546.40
  Q 546.07 542.45 541.16 541.22
  A 1.20 1.19 37.2 0 0 540.27 541.34
  Q 538.32 542.43 536.77 541.36
  Q 532.70 538.54 529.18 537.32
  Q 527.94 536.89 525.54 535.79
  Q 523.92 535.05 521.72 534.55
  Q 520.56 534.28 519.14 533.32
  Q 517.38 532.11 516.73 531.78
  Q 514.33 530.55 511.85 529.64
  Q 510.47 529.13 511.08 528.39
  A 0.79 0.79 0.0 0 0 510.61 527.11
  Q 509.09 526.84 508.89 528.30
  A 0.90 0.90 0.0 0 1 507.47 528.91
  Q 506.42 528.17 504.93 528.14
  A 0.88 0.88 0.0 0 1 504.50 526.51
  L 509.80 523.38
  Q 510.24 523.12 510.75 523.12
  L 511.41 523.12
  Q 511.82 523.12 511.97 522.74
  L 512.11 522.37
  Q 512.43 521.59 511.63 521.86
  Q 508.89 522.82 506.08 523.55
  Q 505.83 523.62 505.74 523.77
  Q 505.66 523.88 505.63 524.02
  Q 505.60 524.19 505.44 524.23
  L 497.00 526.42
  Q 516.39 518.39 534.56 508.18
  C 543.48 503.43 551.11 497.34 559.34 491.57
  Q 567.14 486.11 576.05 477.03
  Q 578.38 474.66 579.50 471.26
  Q 589.11 466.01 592.84 457.49
  Q 593.62 456.21 594.53 455.63
  Q 595.15 455.23 595.16 455.97
  L 595.16 460.16
  Z"
/>
<path fill="#141414" d="
  M 196.82 457.72
  Q 199.17 491.10 215.36 519.44
  C 239.78 563.61 280.68 590.72 328.25 603.06
  Q 340.06 606.12 348.25 606.13
  C 352.61 606.13 356.95 602.98 361.94 602.76
  C 355.07 604.41 350.20 608.05 342.32 607.87
  Q 342.27 607.87 342.27 607.81
  Q 342.26 607.66 342.26 607.56
  Q 342.25 607.47 342.34 607.46
  Q 343.73 607.33 345.12 607.39
  Q 345.13 607.39 345.13 607.38
  Q 345.13 607.38 345.13 607.37
  Q 345.13 607.37 345.12 607.37
  Q 342.17 607.37 339.21 607.37
  C 336.49 607.37 332.39 606.64 328.91 606.87
  Q 326.76 607.01 324.56 606.57
  Q 318.85 605.44 312.96 607.08
  A 0.11 0.11 0.0 0 0 312.99 607.30
  L 316.00 607.22
  A 0.05 0.04 -46.7 0 1 316.00 607.31
  Q 296.97 609.16 277.71 608.16
  Q 267.36 607.50 256.99 607.24
  C 254.15 607.17 251.08 606.49 248.09 606.27
  Q 242.51 605.85 241.43 605.71
  C 209.34 601.35 182.32 587.79 160.84 563.27
  Q 126.92 524.31 128.76 472.00
  Q 128.95 473.52 130.12 474.44
  A 0.73 0.72 39.4 0 0 131.12 474.35
  Q 133.15 471.99 135.20 474.21
  A 1.58 1.55 69.6 0 0 136.28 474.72
  Q 140.98 474.96 145.35 473.53
  Q 145.69 473.41 145.85 473.74
  L 146.15 474.37
  Q 146.29 474.67 146.61 474.60
  Q 147.08 474.50 147.42 474.10
  Q 147.72 473.75 148.13 473.56
  Q 149.71 472.81 151.33 473.01
  C 153.55 473.29 154.45 473.31 156.26 473.29
  Q 156.80 473.29 157.14 472.86
  Q 157.80 472.03 158.69 472.69
  Q 159.13 473.01 159.64 472.84
  Q 162.63 471.80 165.75 472.03
  Q 167.04 472.12 167.36 471.08
  Q 167.50 470.62 167.97 470.52
  Q 173.29 469.44 178.59 470.37
  C 179.93 470.60 181.33 470.21 182.83 471.37
  Q 183.20 471.65 183.63 471.49
  Q 187.22 470.14 191.04 470.08
  A 1.57 1.57 0.0 0 1 192.60 471.32
  Q 192.88 472.58 194.20 472.41
  A 0.79 0.78 85.5 0 1 195.09 473.18
  Q 195.14 475.89 196.37 478.25
  Q 196.58 478.66 196.75 478.23
  Q 197.32 476.67 196.40 475.51
  Q 196.11 475.15 196.43 474.81
  Q 196.72 474.50 196.69 474.09
  Q 196.63 473.10 196.63 473.09
  Q 197.00 469.60 196.43 467.28
  Q 195.04 461.56 196.82 457.72
  Z"
/>
<path fill="#5f5f5f" d="
  M 595.16 460.16
  Q 593.77 469.80 590.37 478.97
  Q 590.69 478.89 590.16 478.69
  L 595.16 460.16
  Z"
/>
<path fill="#464646" d="
  M 579.50 471.26
  Q 578.38 474.66 576.05 477.03
  Q 567.14 486.11 559.34 491.57
  C 551.11 497.34 543.48 503.43 534.56 508.18
  Q 534.46 507.89 534.00 507.82
  Q 538.70 505.25 543.15 502.27
  Q 545.15 500.94 545.71 499.21
  Q 546.36 497.24 546.08 495.09
  Q 546.02 494.60 546.18 494.12
  C 547.03 491.66 546.24 489.37 546.17 487.48
  Q 545.89 480.43 544.79 473.93
  Q 562.54 476.30 579.50 471.26
  Z"
/>
<path fill="#464646" d="
  M 590.16 478.69
  Q 590.69 478.89 590.37 478.97
  L 588.73 483.97
  Q 588.57 481.43 590.16 478.69
  Z"
/>
<path fill="#5f5f5f" d="
  M 534.00 507.82
  Q 534.46 507.89 534.56 508.18
  Q 516.39 518.39 497.00 526.42
  Q 496.86 526.44 496.73 526.46
  L 496.43 526.15
  L 509.45 520.39
  L 534.00 507.82
  Z"
/>
<path fill="#ededed" d="
  M 286.18 563.41
  C 310.09 581.34 338.32 594.01 367.86 598.42
  Q 394.70 602.41 425.25 601.65
  Q 449.45 601.04 468.77 595.90
  Q 469.00 595.88 469.28 596.18
  C 454.35 600.45 436.77 602.70 420.00 602.98
  Q 395.17 603.39 370.35 602.43
  C 367.51 602.32 364.72 602.54 361.94 602.76
  C 356.95 602.98 352.61 606.13 348.25 606.13
  Q 340.06 606.12 328.25 603.06
  C 280.68 590.72 239.78 563.61 215.36 519.44
  Q 219.18 523.05 221.40 527.80
  C 221.67 528.38 221.92 528.49 222.37 528.88
  Q 222.75 529.22 222.84 529.72
  Q 223.09 531.15 224.26 532.01
  Q 224.70 532.33 224.81 532.86
  Q 225.06 534.16 226.19 534.91
  Q 226.59 535.18 227.05 535.05
  Q 228.43 534.69 229.16 535.60
  Q 229.37 535.86 229.70 535.85
  Q 231.57 535.84 232.85 537.36
  Q 233.19 537.76 233.71 537.86
  Q 235.56 538.22 237.01 537.10
  Q 237.49 536.72 237.83 537.24
  Q 238.29 537.96 238.92 537.54
  Q 239.45 537.18 239.72 537.77
  L 240.24 538.93
  A 0.35 0.34 51.5 0 0 240.83 539.00
  L 241.08 538.66
  Q 241.39 538.22 241.85 538.50
  Q 251.64 544.42 260.90 551.11
  Q 263.28 552.83 267.10 554.63
  Q 274.78 558.23 280.67 564.56
  Q 282.55 566.58 287.85 568.79
  Q 288.39 569.02 288.94 568.81
  Q 289.94 568.43 290.87 569.25
  Q 291.20 569.53 291.61 569.39
  L 291.95 569.27
  Q 292.50 569.07 291.97 568.82
  Q 287.36 566.57 286.18 563.41
  Z"
/>
<path fill="#b1b1b0" d="
  M 496.43 526.15
  L 496.73 526.46
  L 483.81 531.29
  Q 483.79 530.87 483.54 530.87
  L 496.43 526.15
  Z"
/>
<path fill="#464646" d="
  M 457.75 536.82
  L 439.48 539.02
  L 434.16 538.25
  L 442.65 538.34
  Q 442.75 538.34 442.75 538.23
  Q 442.75 538.12 442.75 537.97
  Q 442.75 537.90 442.68 537.90
  Q 411.65 537.91 399.00 536.61
  Q 390.30 535.71 381.65 534.44
  Q 379.50 534.13 377.38 533.57
  Q 374.43 532.81 372.79 534.22
  Q 366.66 532.33 360.43 528.82
  L 360.18 527.66
  Q 359.98 526.75 360.83 527.13
  L 364.47 528.74
  Q 364.82 528.89 365.21 528.88
  Q 366.17 528.84 366.49 528.92
  Q 384.43 533.52 394.00 534.12
  Q 404.74 534.79 415.45 535.88
  C 420.89 536.44 426.25 536.36 431.72 536.52
  C 435.95 536.65 442.33 537.66 447.81 537.32
  Q 448.09 537.30 448.21 537.05
  Q 448.32 536.84 448.50 536.83
  Q 452.00 536.65 457.75 536.82
  Z"
/>
<path fill="#2d2d2d" d="
  M 326.42 532.26
  C 362.29 545.86 399.49 547.74 437.29 542.42
  Q 437.65 542.33 437.94 542.48
  A 0.31 0.31 0.0 0 1 437.96 543.02
  Q 435.28 544.58 434.49 544.78
  C 428.83 546.15 420.97 546.13 415.54 546.61
  Q 378.20 549.90 342.22 539.22
  Q 341.90 539.13 341.87 538.79
  Q 341.86 538.53 341.56 538.36
  A 0.33 0.31 -32.8 0 0 341.34 538.32
  C 339.10 538.79 338.10 537.80 336.43 537.28
  Q 332.18 535.95 327.97 534.53
  Q 327.50 534.37 327.27 533.92
  L 326.42 532.26
  Z"
/>
<path fill="#5f5f5f" d="
  M 434.16 538.25
  Q 427.01 538.04 419.76 538.32
  Q 415.96 538.46 407.75 538.31
  Q 401.72 538.20 395.71 538.94
  Q 384.39 538.38 372.79 534.22
  Q 374.43 532.81 377.38 533.57
  Q 379.50 534.13 381.65 534.44
  Q 390.30 535.71 399.00 536.61
  Q 411.65 537.91 442.68 537.90
  Q 442.75 537.90 442.75 537.97
  Q 442.75 538.12 442.75 538.23
  Q 442.75 538.34 442.65 538.34
  L 434.16 538.25
  Z"
/>
<path fill="#868686" d="
  M 434.16 538.25
  L 439.48 539.02
  Q 430.56 540.52 421.75 540.18
  Q 412.65 539.83 403.47 539.88
  Q 401.86 539.89 403.46 539.76
  L 404.13 539.71
  Q 404.13 539.71 404.13 539.65
  Q 404.13 539.64 404.13 539.62
  Q 404.13 539.61 404.11 539.61
  L 395.71 538.94
  Q 401.72 538.20 407.75 538.31
  Q 415.96 538.46 419.76 538.32
  Q 427.01 538.04 434.16 538.25
  Z"
/>
<path fill="#868686" d="
  M 160.84 563.27
  C 182.32 587.79 209.34 601.35 241.43 605.71
  Q 242.51 605.85 248.09 606.27
  C 251.08 606.49 254.15 607.17 256.99 607.24
  Q 267.36 607.50 277.71 608.16
  Q 258.82 608.26 240.14 606.17
  Q 231.67 605.22 224.32 603.09
  Q 217.08 601.00 208.95 598.06
  C 190.21 591.30 173.40 578.46 160.54 563.51
  Q 160.68 563.50 160.84 563.27
  Z"
/>
<path fill="#5f5f5f" d="
  M 488.54 588.64
  L 469.28 596.18
  Q 469.00 595.88 468.77 595.90
  L 488.54 588.64
  Z"
/>
</svg>
